<?xml version="1.0" encoding="utf-8"?>
<svg width="652" height="402" viewBox="0 0 652 402" xmlns="http://www.w3.org/2000/svg">
<rect id="frame" x="0" y="0" width="652" height="402" fill="#FFF" stroke="none" stroke-width="0"/>

<!-- Association passer -->
<g>
	<line x1="82" y1="89" x2="229" y2="89" stroke="#000" stroke-width="1"/>
	<text x="139" y="105" fill="#000" font-family="Courier New" font-size="12">1,N</text>
	<line x1="384" y1="89" x2="229" y2="89" stroke="#000" stroke-width="1"/>
	<text x="296" y="105" fill="#000" font-family="Courier New" font-size="12">1,1</text>
	<g>
		<path d="M277 63 a14 14 90 0 1 14 14 V89 h-124 V77 a14 14 90 0 1 14 -14" fill="#FFF" stroke="#FFF" stroke-width="0"/>
		<path d="M291 89 v12 a14 14 90 0 1 -14 14 H181 a14 14 90 0 1 -14 -14 V89 H124" fill="#FFF" stroke="#FFF" stroke-width="0"/>
		<rect x="167" y="63" width="124" height="52" fill="none" rx="14" stroke="#000" stroke-width="1.5"/>
		<line x1="167" y1="89" x2="291" y2="89" stroke="#000" stroke-width="1"/>
		<text x="203" y="81.6" fill="#000" font-family="Courier New" font-size="14">passer</text>
		<text x="174" y="107.6" fill="#000" font-family="Courier New" font-size="14">date_commande</text>
	</g>
</g>

<!-- Association constituer -->
<g>
	<line x1="553" y1="201" x2="553" y2="89" stroke="#000" stroke-width="1"/>
	<text x="558" y="149" fill="#000" font-family="Courier New" font-size="12">1,1</text>
	<line x1="384" y1="89" x2="553" y2="89" stroke="#000" stroke-width="1"/>
	<text x="449" y="105" fill="#000" font-family="Courier New" font-size="12">1,N</text>
	<g>
		<path d="M589 63 a14 14 90 0 1 14 14 V89 h-100 V77 a14 14 90 0 1 14 -14" fill="#FFF" stroke="#FFF" stroke-width="0"/>
		<path d="M603 89 v12 a14 14 90 0 1 -14 14 H517 a14 14 90 0 1 -14 -14 V89 H100" fill="#FFF" stroke="#FFF" stroke-width="0"/>
		<rect x="503" y="63" width="100" height="52" fill="none" rx="14" stroke="#000" stroke-width="1.5"/>
		<line x1="503" y1="89" x2="603" y2="89" stroke="#000" stroke-width="1"/>
		<text x="511" y="81.6" fill="#000" font-family="Courier New" font-size="14">constituer</text>
	</g>
</g>

<!-- Association concerner -->
<g>
	<line x1="229" y1="201" x2="384" y2="201" stroke="#000" stroke-width="1"/>
	<text x="290" y="217" fill="#000" font-family="Courier New" font-size="12">0,N</text>
	<line x1="553" y1="201" x2="384" y2="201" stroke="#000" stroke-width="1"/>
	<text x="435" y="217" fill="#000" font-family="Courier New" font-size="12">1,1</text>
	<g>
		<path d="M416 175 a14 14 90 0 1 14 14 V201 h-92 V189 a14 14 90 0 1 14 -14" fill="#FFF" stroke="#FFF" stroke-width="0"/>
		<path d="M430 201 v12 a14 14 90 0 1 -14 14 H352 a14 14 90 0 1 -14 -14 V201 H92" fill="#FFF" stroke="#FFF" stroke-width="0"/>
		<rect x="338" y="175" width="92" height="52" fill="none" rx="14" stroke="#000" stroke-width="1.5"/>
		<line x1="338" y1="201" x2="430" y2="201" stroke="#000" stroke-width="1"/>
		<text x="346" y="193.6" fill="#000" font-family="Courier New" font-size="14">concerner</text>
	</g>
</g>

<!-- Association endosser -->
<g>
	<line x1="82" y1="340" x2="229" y2="340" stroke="#000" stroke-width="1"/>
	<text x="160" y="356" fill="#000" font-family="Courier New" font-size="12">1,1</text>
	<line x1="384" y1="340" x2="229" y2="340" stroke="#000" stroke-width="1"/>
	<text x="308" y="356" fill="#000" font-family="Courier New" font-size="12">1,N</text>
	<g>
		<path d="M256 314 a14 14 90 0 1 14 14 V340 h-82 V328 a14 14 90 0 1 14 -14" fill="#FFF" stroke="#FFF" stroke-width="0"/>
		<path d="M270 340 v12 a14 14 90 0 1 -14 14 H202 a14 14 90 0 1 -14 -14 V340 H82" fill="#FFF" stroke="#FFF" stroke-width="0"/>
		<rect x="188" y="314" width="82" height="52" fill="none" rx="14" stroke="#000" stroke-width="1.5"/>
		<line x1="188" y1="340" x2="270" y2="340" stroke="#000" stroke-width="1"/>
		<text x="195" y="332.6" fill="#000" font-family="Courier New" font-size="14">endosser</text>
	</g>
</g>

<!-- Entity client -->
<g>
	<g>
		<rect x="30" y="9" width="104" height="26" fill="#FFF" stroke="#FFF" stroke-width="0" opacity="1"/>
		<rect x="30" y="35" width="104" height="134" fill="#FFF" stroke="#FFF" stroke-width="0" opacity="1"/>
		<rect x="30" y="9" width="104" height="160" fill="none" stroke="#000" stroke-width="1.5" opacity="1"/>
		<line x1="30" y1="35" x2="134" y2="35" stroke="#000" stroke-width="1"/>
	</g>
	<text x="56" y="27.6" fill="#000" font-family="Courier New" font-size="14">client</text>
	<text x="35" y="53.6" fill="#000" font-family="Courier New" font-size="14">code_client</text>
	<line x1="35" y1="56" x2="129" y2="56" stroke="#000" stroke-width="1"/>
	<text x="35" y="71.6" fill="#000" font-family="Courier New" font-size="14">nom</text>
	<text x="35" y="89.6" fill="#000" font-family="Courier New" font-size="14">prenom</text>
	<text x="35" y="107.6" fill="#000" font-family="Courier New" font-size="14">adresse</text>
	<text x="35" y="125.6" fill="#000" font-family="Courier New" font-size="14">code_postal</text>
	<text x="35" y="143.6" fill="#000" font-family="Courier New" font-size="14">ville</text>
	<text x="35" y="161.6" fill="#000" font-family="Courier New" font-size="14">stimestamp</text>
</g>

<!-- Entity commande -->
<g>
	<g>
		<rect x="324" y="54" width="120" height="26" fill="#FFF" stroke="#FFF" stroke-width="0" opacity="1"/>
		<rect x="324" y="80" width="120" height="44" fill="#FFF" stroke="#FFF" stroke-width="0" opacity="1"/>
		<rect x="324" y="54" width="120" height="70" fill="none" stroke="#000" stroke-width="1.5" opacity="1"/>
		<line x1="324" y1="80" x2="444" y2="80" stroke="#000" stroke-width="1"/>
	</g>
	<text x="350" y="72.6" fill="#000" font-family="Courier New" font-size="14">commande</text>
	<text x="329" y="98.6" fill="#000" font-family="Courier New" font-size="14">code_commande</text>
	<line x1="329" y1="101" x2="439" y2="101" stroke="#000" stroke-width="1"/>
	<text x="329" y="116.6" fill="#000" font-family="Courier New" font-size="14">stimestamp</text>
</g>

<!-- Entity produit -->
<g>
	<g>
		<rect x="173" y="139" width="112" height="26" fill="#FFF" stroke="#FFF" stroke-width="0" opacity="1"/>
		<rect x="173" y="165" width="112" height="98" fill="#FFF" stroke="#FFF" stroke-width="0" opacity="1"/>
		<rect x="173" y="139" width="112" height="124" fill="none" stroke="#000" stroke-width="1.5" opacity="1"/>
		<line x1="173" y1="165" x2="285" y2="165" stroke="#000" stroke-width="1"/>
	</g>
	<text x="199" y="157.6" fill="#000" font-family="Courier New" font-size="14">produit</text>
	<text x="178" y="183.6" fill="#000" font-family="Courier New" font-size="14">code_produit</text>
	<line x1="178" y1="186" x2="280" y2="186" stroke="#000" stroke-width="1"/>
	<text x="178" y="201.6" fill="#000" font-family="Courier New" font-size="14">libelle</text>
	<text x="178" y="219.6" fill="#000" font-family="Courier New" font-size="14">description</text>
	<text x="178" y="237.6" fill="#000" font-family="Courier New" font-size="14">prix</text>
	<text x="178" y="255.6" fill="#000" font-family="Courier New" font-size="14">stimestamp</text>
</g>

<!-- Entity detail_commande -->
<g>
	<g>
		<rect x="463" y="157" width="180" height="26" fill="#FFF" stroke="#FFF" stroke-width="0" opacity="1"/>
		<rect x="463" y="183" width="180" height="62" fill="#FFF" stroke="#FFF" stroke-width="0" opacity="1"/>
		<rect x="463" y="157" width="180" height="88" fill="none" stroke="#000" stroke-width="1.5" opacity="1"/>
		<line x1="463" y1="183" x2="643" y2="183" stroke="#000" stroke-width="1"/>
	</g>
	<text x="490" y="175.6" fill="#000" font-family="Courier New" font-size="14">detail_commande</text>
	<text x="468" y="201.6" fill="#000" font-family="Courier New" font-size="14">code_detail_commande</text>
	<line x1="468" y1="204" x2="637" y2="204" stroke="#000" stroke-width="1"/>
	<text x="468" y="219.6" fill="#000" font-family="Courier New" font-size="14">quantite</text>
	<text x="468" y="237.6" fill="#000" font-family="Courier New" font-size="14">stimestamp</text>
</g>

<!-- Entity utilisateur -->
<g>
	<g>
		<rect x="9" y="287" width="146" height="26" fill="#FFF" stroke="#FFF" stroke-width="0" opacity="1"/>
		<rect x="9" y="313" width="146" height="80" fill="#FFF" stroke="#FFF" stroke-width="0" opacity="1"/>
		<rect x="9" y="287" width="146" height="106" fill="none" stroke="#000" stroke-width="1.5" opacity="1"/>
		<line x1="9" y1="313" x2="155" y2="313" stroke="#000" stroke-width="1"/>
	</g>
	<text x="35" y="305.6" fill="#000" font-family="Courier New" font-size="14">utilisateur</text>
	<text x="14" y="331.6" fill="#000" font-family="Courier New" font-size="14">code_utilisateur</text>
	<line x1="14" y1="334" x2="150" y2="334" stroke="#000" stroke-width="1"/>
	<text x="14" y="349.6" fill="#000" font-family="Courier New" font-size="14">email</text>
	<text x="14" y="367.6" fill="#000" font-family="Courier New" font-size="14">password</text>
	<text x="14" y="385.6" fill="#000" font-family="Courier New" font-size="14">stimestamp</text>
</g>

<!-- Entity role -->
<g>
	<g>
		<rect x="336" y="296" width="96" height="26" fill="#FFF" stroke="#FFF" stroke-width="0" opacity="1"/>
		<rect x="336" y="322" width="96" height="62" fill="#FFF" stroke="#FFF" stroke-width="0" opacity="1"/>
		<rect x="336" y="296" width="96" height="88" fill="none" stroke="#000" stroke-width="1.5" opacity="1"/>
		<line x1="336" y1="322" x2="432" y2="322" stroke="#000" stroke-width="1"/>
	</g>
	<text x="367" y="314.6" fill="#000" font-family="Courier New" font-size="14">role</text>
	<text x="341" y="340.6" fill="#000" font-family="Courier New" font-size="14">code_role</text>
	<line x1="341" y1="343" x2="418" y2="343" stroke="#000" stroke-width="1"/>
	<text x="341" y="358.6" fill="#000" font-family="Courier New" font-size="14">libelle</text>
	<text x="341" y="376.6" fill="#000" font-family="Courier New" font-size="14">stimestamp</text>
</g>
</svg>